<?xml version="1.0" encoding="utf-8"?>
<!-- Generator: Adobe Illustrator 23.0.3, SVG Export Plug-In . SVG Version: 6.00 Build 0)  -->
<svg version="1.1" id="Layer_1" xmlns="http://www.w3.org/2000/svg" xmlns:xlink="http://www.w3.org/1999/xlink" x="0px" y="0px"
	 viewBox="0 0 46 14" style="enable-background:new 0 0 46 14;" xml:space="preserve">
<g id="AAA">
	<path d="M39,1c-3.3,0-6,2.7-6,6s2.7,6,6,6s6-2.7,6-6S42.3,1,39,1z M42.1,5.3l-3.9,3.9l0,0c0,0-0.2,0.2-0.3,0.2s-0.2-0.1-0.3-0.2
		L36,7.6c0,0,0-0.1,0-0.2l0.5-0.5h0.1h0.1L38,8.2l3.5-3.5h0.1h0.1L42.1,5.3C42.1,5.2,42.1,5.3,42.1,5.3L42.1,5.3z"/>
	<g>
		<path d="M7.6,11.4H6.7l3.2-8.7h0.9l3.2,8.7h-0.8l-2.7-7.7h-0.1L7.6,11.4z M8.2,8h4.3v0.7H8.2V8z"/>
		<path d="M15.4,11.4h-0.8l3.2-8.7h0.9l3.2,8.7H21l-2.7-7.7h-0.1L15.4,11.4z M16,8h4.3v0.7H16V8z"/>
		<path d="M23.3,11.4h-0.8l3.2-8.7h0.9l3.2,8.7h-0.8l-2.7-7.7h-0.1L23.3,11.4z M23.9,8h4.3v0.7h-4.3V8z"/>
	</g>
</g>
</svg>
