<?xml version="1.0" encoding="utf-8"?>
<!-- Generator: Adobe Illustrator 23.0.3, SVG Export Plug-In . SVG Version: 6.00 Build 0)  -->
<svg version="1.1" id="Layer_1" xmlns="http://www.w3.org/2000/svg" xmlns:xlink="http://www.w3.org/1999/xlink" x="0px" y="0px"
	 viewBox="0 0 46 14" style="enable-background:new 0 0 46 14;" xml:space="preserve">
<g id="aa">
	<g>
		<path d="M12.2,2.6l-2.9,8.7h0.6l0.9-2.7H14l0.9,2.7h0.6l-2.9-8.7H12.2z M10.9,8.1l1.5-4.6l1.5,4.6H10.9z"/>
		<path d="M19.8,2.6l-2.9,8.7h0.6l0.9-2.7h3.3l0.9,2.7h0.6l-2.9-8.7H19.8z M18.5,8.1L20,3.5l1.5,4.6H18.5z"/>
		<path d="M27.8,2.6h-0.4l-2.9,8.7h0.6L26,8.6h3.3l0.9,2.7h0.6L27.8,2.6z M26.1,8.1l1.5-4.6l1.5,4.6H26.1z"/>
	</g>
	<path d="M39,1c-3.3,0-6,2.7-6,6s2.7,6,6,6s6-2.7,6-6S42.3,1,39,1z M40.5,9.2L39,7.7l-1.5,1.5c-0.2,0.2-0.5,0.2-0.7,0
		c-0.1-0.1-0.1-0.2-0.1-0.3c0-0.1,0-0.2,0.1-0.3L38.3,7l-1.5-1.5c-0.1-0.1-0.1-0.2-0.1-0.3s0-0.2,0.1-0.3c0.2-0.2,0.5-0.2,0.7,0
		L39,6.3l1.5-1.5c0.2-0.2,0.5-0.2,0.7,0c0.2,0.2,0.2,0.5,0,0.7L39.7,7l1.5,1.5c0.2,0.2,0.2,0.5,0,0.7C41,9.4,40.7,9.4,40.5,9.2
		L40.5,9.2z"/>
	<rect x="9.3" y="6.8" width="21.7" height="0.5"/>
</g>
</svg>
