<?xml version="1.0" encoding="utf-8"?>
<!-- Generator: Adobe Illustrator 23.0.3, SVG Export Plug-In . SVG Version: 6.00 Build 0)  -->
<svg version="1.1" id="Layer_1" xmlns="http://www.w3.org/2000/svg" xmlns:xlink="http://www.w3.org/1999/xlink" x="0px" y="0px"
	 viewBox="0 0 46 14" style="enable-background:new 0 0 46 14;" xml:space="preserve">
<style type="text/css">
	.st0{display:none;}
	.st1{display:inline;}
</style>
<g id="aa">
	<g class="st0">
		<path class="st1" d="M19.8,2.6l-2.9,8.7h0.6l0.9-2.7h3.3l0.9,2.7h0.6l-2.9-8.7C20.3,2.6,19.8,2.6,19.8,2.6z M18.5,8.1L20,3.5
			l1.5,4.6H18.5z"/>
		<path class="st1" d="M27.8,2.6h-0.4l-2.9,8.7h0.6L26,8.6h3.3l0.9,2.7h0.6L27.8,2.6z M26.1,8.1l1.5-4.6l1.5,4.6H26.1z"/>
	</g>
	<rect x="6.7" y="6.5" width="23" height="1"/>
	<path d="M39,1c-3.3,0-6,2.7-6,6s2.7,6,6,6s6-2.7,6-6S42.3,1,39,1z M40.5,9.2L39,7.7l-1.5,1.5c-0.2,0.2-0.5,0.2-0.7,0
		c-0.1-0.1-0.1-0.2-0.1-0.3s0-0.2,0.1-0.3L38.3,7l-1.5-1.5c-0.1-0.1-0.1-0.2-0.1-0.3s0-0.2,0.1-0.3c0.2-0.2,0.5-0.2,0.7,0L39,6.3
		l1.5-1.5c0.2-0.2,0.5-0.2,0.7,0s0.2,0.5,0,0.7L39.7,7l1.5,1.5c0.2,0.2,0.2,0.5,0,0.7S40.7,9.4,40.5,9.2L40.5,9.2z"/>
</g>
<g>
	<path d="M7.6,11.4H6.7l3.2-8.7h0.9l3.2,8.7h-0.8l-2.7-7.7h-0.1L7.6,11.4z M8.2,8h4.3v0.7H8.2V8z"/>
	<path d="M15.4,11.4h-0.8l3.2-8.7h0.9l3.2,8.7H21l-2.7-7.7h-0.1L15.4,11.4z M16,8h4.3v0.7H16V8z"/>
	<path d="M23.3,11.4h-0.8l3.2-8.7h0.9l3.2,8.7h-0.8l-2.7-7.7h-0.1L23.3,11.4z M23.9,8h4.3v0.7h-4.3V8z"/>
</g>
</svg>
